<svg width="2000px" height="960px"
 viewBox="0.00 0.00 824.77 396.40" xmlns="http://www.w3.org/2000/svg" xmlns:xlink="http://www.w3.org/1999/xlink">
<g id="graph0" class="graph" transform="scale(1.0 1.0) rotate(0) translate(4 392.4)">
<title>ContextMapGraph</title>
<polygon fill="white" stroke="transparent" points="-4,4 -4,-392.4 820.77,-392.4 820.77,4 -4,4"/>
<!-- GestionAlquileres -->
<g id="node1" class="node">
<title>GestionAlquileres</title>
<polygon fill="none" stroke="black" stroke-width="2" points="512.47,-332.89 514,-335.71 515.15,-338.53 515.94,-341.34 516.34,-344.14 516.36,-346.89 515.99,-349.61 515.24,-352.28 514.1,-354.88 512.58,-357.41 510.67,-359.86 508.38,-362.23 505.72,-364.49 502.69,-366.65 499.31,-368.71 495.57,-370.64 491.49,-372.46 487.09,-374.15 482.37,-375.72 477.36,-377.15 472.05,-378.45 466.48,-379.62 460.66,-380.65 454.6,-381.55 448.33,-382.31 441.87,-382.94 435.23,-383.44 428.44,-383.82 421.52,-384.06 414.5,-384.19 407.38,-384.19 400.2,-384.08 392.99,-383.86 385.75,-383.53 378.52,-383.1 371.31,-382.57 364.15,-381.94 357.07,-381.23 350.08,-380.43 343.2,-379.56 336.46,-378.61 329.86,-377.58 323.45,-376.49 317.22,-375.34 311.2,-374.12 305.41,-372.85 299.86,-371.53 294.56,-370.15 289.53,-368.73 284.79,-367.26 280.33,-365.75 276.18,-364.19 272.34,-362.6 268.82,-360.96 265.63,-359.29 262.77,-357.59 260.26,-355.84 258.08,-354.07 256.25,-352.26 254.77,-350.42 253.63,-348.55 252.85,-346.65 252.41,-344.72 252.32,-342.77 252.57,-340.79 253.16,-338.79 254.09,-336.77 255.35,-334.73 256.93,-332.68 258.83,-330.62 261.05,-328.55 263.57,-326.48 266.39,-324.41 269.5,-322.34 272.88,-320.29 276.54,-318.25 280.46,-316.24 284.63,-314.26 289.04,-312.31 293.68,-310.41 298.54,-308.56 303.6,-306.76 308.86,-305.03 314.31,-303.38 319.92,-301.8 325.7,-300.31 331.61,-298.92 337.66,-297.63 343.83,-296.45 350.1,-295.38 356.46,-294.45 362.9,-293.64 369.4,-292.97 375.95,-292.44 382.53,-292.06 389.12,-291.83 395.71,-291.76 402.29,-291.84 408.84,-292.08 415.34,-292.49 421.78,-293.06 428.14,-293.79 434.4,-294.69 440.54,-295.75 446.56,-296.96 452.43,-298.33 458.14,-299.85 463.67,-301.51 469.01,-303.32 474.13,-305.26 479.03,-307.32 483.69,-309.5 488.09,-311.8 492.22,-314.19 496.07,-316.67 499.61,-319.24 502.85,-321.87 505.77,-324.57 508.35,-327.31 510.59,-330.09 512.47,-332.89"/>
<text text-anchor="middle" x="382.49" y="-336.22" font-family="sans-serif" font-size="16.00">GestionAlquileres</text>
</g>
<!-- GestionPagos -->
<g id="node2" class="node">
<title>GestionPagos</title>
<polygon fill="none" stroke="black" stroke-width="2" points="188.69,-227.37 183.36,-229.27 177.87,-231.06 172.24,-232.75 166.49,-234.31 160.65,-235.75 154.73,-237.05 148.76,-238.22 142.76,-239.24 136.75,-240.11 130.74,-240.84 124.76,-241.4 118.83,-241.82 112.97,-242.07 107.18,-242.16 101.49,-242.09 95.91,-241.86 90.45,-241.48 85.14,-240.93 79.97,-240.24 74.97,-239.39 70.13,-238.39 65.47,-237.26 61,-235.98 56.73,-234.58 52.65,-233.05 48.77,-231.41 45.11,-229.65 41.65,-227.79 38.41,-225.84 35.39,-223.8 32.58,-221.68 29.99,-219.49 27.62,-217.24 25.47,-214.94 23.54,-212.6 21.83,-210.22 20.34,-207.82 19.06,-205.4 18.01,-202.97 17.17,-200.54 16.54,-198.12 16.13,-195.71 15.94,-193.33 15.97,-190.97 16.2,-188.65 16.66,-186.37 17.33,-184.13 18.22,-181.95 19.32,-179.83 20.64,-177.76 22.18,-175.76 23.93,-173.84 25.91,-171.98 28.1,-170.2 30.51,-168.49 33.13,-166.86 35.98,-165.32 39.04,-163.86 42.31,-162.48 45.8,-161.18 49.49,-159.97 53.39,-158.84 57.5,-157.81 61.8,-156.85 66.29,-155.98 70.96,-155.2 75.82,-154.51 80.84,-153.9 86.02,-153.38 91.34,-152.94 96.8,-152.59 102.39,-152.32 108.08,-152.15 113.87,-152.05 119.73,-152.05 125.66,-152.13 131.63,-152.3 137.63,-152.56 143.63,-152.9 149.61,-153.34 155.57,-153.86 161.46,-154.47 167.29,-155.18 173.01,-155.97 178.61,-156.86 184.07,-157.83 189.37,-158.9 194.49,-160.06 199.4,-161.31 204.08,-162.65 208.52,-164.08 212.7,-165.6 216.59,-167.2 220.19,-168.89 223.47,-170.67 226.42,-172.52 229.03,-174.45 231.29,-176.46 233.18,-178.54 234.7,-180.68 235.84,-182.89 236.6,-185.15 236.96,-187.46 236.94,-189.82 236.53,-192.21 235.73,-194.64 234.54,-197.09 232.97,-199.56 231.03,-202.03 228.73,-204.51 226.08,-206.98 223.08,-209.43 219.76,-211.86 216.12,-214.25 212.19,-216.6 207.97,-218.89 203.5,-221.13 198.78,-223.29 193.83,-225.38 188.69,-227.37"/>
<text text-anchor="middle" x="118.49" y="-189.95" font-family="sans-serif" font-size="16.00">GestionPagos</text>
</g>
<!-- GestionAlquileres&#45;&gt;GestionPagos -->
<g id="edge1" class="edge">
<title>GestionAlquileres&#45;&gt;GestionPagos</title>
<path fill="none" stroke="black" stroke-width="2" d="M316.21,-302.8C275.28,-280.43 223.02,-251.88 182.51,-229.74"/>
<text text-anchor="middle" x="300.49" y="-264.04" font-family="sans-serif" font-size="12.00">Shared Kernel</text>
</g>
<!-- GestionClientes -->
<g id="node3" class="node">
<title>GestionClientes</title>
<polygon fill="none" stroke="black" stroke-width="2" points="494.47,-177.08 497.59,-179.71 500.37,-182.37 502.82,-185.05 504.92,-187.74 506.65,-190.43 508.01,-193.11 509,-195.76 509.59,-198.38 509.8,-200.96 509.61,-203.49 509.03,-205.97 508.06,-208.37 506.69,-210.71 504.93,-212.96 502.79,-215.13 500.27,-217.2 497.38,-219.18 494.13,-221.06 490.52,-222.83 486.58,-224.5 482.32,-226.05 477.75,-227.49 472.88,-228.82 467.74,-230.04 462.34,-231.13 456.71,-232.12 450.86,-232.99 444.82,-233.75 438.6,-234.39 432.23,-234.93 425.74,-235.36 419.13,-235.68 412.45,-235.9 405.7,-236.03 398.92,-236.05 392.12,-235.98 385.34,-235.81 378.58,-235.56 371.88,-235.22 365.24,-234.8 358.71,-234.3 352.28,-233.71 345.99,-233.05 339.84,-232.32 333.87,-231.52 328.07,-230.64 322.47,-229.7 317.08,-228.69 311.92,-227.61 306.99,-226.47 302.31,-225.26 297.88,-224 293.71,-222.67 289.81,-221.28 286.19,-219.83 282.86,-218.32 279.8,-216.75 277.04,-215.13 274.57,-213.44 272.39,-211.7 270.51,-209.91 268.92,-208.07 267.62,-206.17 266.62,-204.22 265.9,-202.23 265.48,-200.19 265.34,-198.11 265.48,-195.99 265.91,-193.84 266.6,-191.66 267.57,-189.45 268.81,-187.22 270.31,-184.98 272.07,-182.73 274.08,-180.47 276.34,-178.21 278.84,-175.97 281.58,-173.74 284.55,-171.54 287.75,-169.37 291.17,-167.24 294.81,-165.16 298.65,-163.14 302.7,-161.19 306.95,-159.3 311.38,-157.5 316,-155.79 320.79,-154.18 325.74,-152.68 330.86,-151.29 336.12,-150.02 341.53,-148.88 347.06,-147.87 352.72,-147.01 358.48,-146.29 364.34,-145.73 370.28,-145.31 376.3,-145.06 382.37,-144.97 388.49,-145.05 394.64,-145.28 400.8,-145.69 406.96,-146.26 413.11,-146.99 419.22,-147.89 425.27,-148.94 431.26,-150.15 437.16,-151.51 442.96,-153.01 448.63,-154.66 454.16,-156.44 459.52,-158.34 464.71,-160.37 469.7,-162.5 474.47,-164.73 479,-167.06 483.29,-169.46 487.31,-171.94 491.04,-174.48 494.47,-177.08"/>
<text text-anchor="middle" x="382.49" y="-189.95" font-family="sans-serif" font-size="16.00">GestionClientes</text>
</g>
<!-- GestionAlquileres&#45;&gt;GestionClientes -->
<g id="edge2" class="edge">
<title>GestionAlquileres&#45;&gt;GestionClientes</title>
<path fill="none" stroke="black" stroke-width="2" d="M382.49,-291.78C382.49,-273.7 382.49,-253.24 382.49,-235.79"/>
<text text-anchor="middle" x="424.49" y="-264.04" font-family="sans-serif" font-size="12.00">Shared Kernel</text>
</g>
<!-- GestionVehiculos -->
<g id="node5" class="node">
<title>GestionVehiculos</title>
<polygon fill="none" stroke="black" stroke-width="2" points="742.33,-156.71 749.52,-158.22 756.47,-159.83 763.16,-161.52 769.55,-163.3 775.62,-165.15 781.35,-167.06 786.71,-169.04 791.67,-171.07 796.23,-173.15 800.35,-175.27 804.03,-177.42 807.26,-179.6 810.01,-181.81 812.29,-184.03 814.09,-186.25 815.4,-188.49 816.22,-190.72 816.55,-192.94 816.39,-195.15 815.76,-197.34 814.66,-199.5 813.1,-201.64 811.09,-203.75 808.64,-205.81 805.78,-207.84 802.51,-209.83 798.86,-211.76 794.85,-213.64 790.5,-215.47 785.83,-217.24 780.87,-218.95 775.63,-220.59 770.15,-222.16 764.45,-223.67 758.55,-225.1 752.47,-226.46 746.25,-227.74 739.9,-228.94 733.46,-230.06 726.93,-231.09 720.35,-232.04 713.74,-232.9 707.11,-233.67 700.48,-234.35 693.89,-234.93 687.33,-235.42 680.82,-235.81 674.39,-236.1 668.04,-236.29 661.79,-236.38 655.65,-236.37 649.62,-236.25 643.72,-236.03 637.95,-235.69 632.33,-235.26 626.84,-234.71 621.51,-234.06 616.34,-233.3 611.32,-232.43 606.47,-231.45 601.78,-230.37 597.26,-229.19 592.91,-227.9 588.73,-226.51 584.73,-225.02 580.91,-223.43 577.26,-221.75 573.8,-219.98 570.52,-218.12 567.44,-216.18 564.55,-214.16 561.85,-212.07 559.37,-209.92 557.09,-207.7 555.02,-205.42 553.18,-203.1 551.58,-200.73 550.2,-198.33 549.08,-195.9 548.2,-193.45 547.59,-190.99 547.26,-188.52 547.2,-186.06 547.43,-183.6 547.96,-181.17 548.79,-178.77 549.94,-176.4 551.4,-174.08 553.2,-171.81 555.32,-169.6 557.78,-167.46 560.58,-165.4 563.73,-163.42 567.22,-161.53 571.05,-159.74 575.22,-158.05 579.74,-156.47 584.58,-155.01 589.75,-153.67 595.23,-152.46 601.02,-151.37 607.1,-150.42 613.46,-149.61 620.09,-148.93 626.95,-148.39 634.05,-147.99 641.34,-147.74 648.81,-147.63 656.44,-147.66 664.19,-147.83 672.05,-148.14 679.98,-148.59 687.95,-149.17 695.93,-149.88 703.89,-150.73 711.81,-151.69 719.64,-152.78 727.36,-153.98 734.93,-155.29 742.33,-156.71"/>
<text text-anchor="middle" x="672.49" y="-189.95" font-family="sans-serif" font-size="16.00">GestionVehiculos</text>
</g>
<!-- GestionAlquileres&#45;&gt;GestionVehiculos -->
<g id="edge3" class="edge">
<title>GestionAlquileres&#45;&gt;GestionVehiculos</title>
<path fill="none" stroke="black" stroke-width="2" d="M460.2,-300.36C503.99,-278.57 558.3,-251.56 601.03,-230.3"/>
<text text-anchor="middle" x="592.49" y="-264.04" font-family="sans-serif" font-size="12.00">Customer/Supplier</text>
<polygon fill="white" stroke="transparent" points="594.03,-221.3 594.03,-238.3 608.03,-238.3 608.03,-221.3 594.03,-221.3"/>
<text text-anchor="start" x="596.03" y="-226.7" font-family="sans-serif" font-size="12.00">D</text>
<polygon fill="white" stroke="transparent" points="453.2,-291.36 453.2,-308.36 467.2,-308.36 467.2,-291.36 453.2,-291.36"/>
<text text-anchor="start" x="455.2" y="-296.76" font-family="sans-serif" font-size="12.00">U</text>
</g>
<!-- Seguridad -->
<g id="node4" class="node">
<title>Seguridad</title>
<polygon fill="none" stroke="black" stroke-width="2" points="472.72,-44.6 473.26,-47.45 473.54,-50.3 473.57,-53.12 473.34,-55.92 472.86,-58.67 472.12,-61.37 471.13,-64.01 469.88,-66.57 468.38,-69.05 466.63,-71.44 464.64,-73.73 462.41,-75.91 459.95,-77.98 457.27,-79.93 454.36,-81.75 451.24,-83.44 447.93,-85 444.42,-86.43 440.73,-87.71 436.86,-88.85 432.84,-89.85 428.67,-90.72 424.36,-91.43 419.94,-92.01 415.4,-92.46 410.77,-92.76 406.05,-92.94 401.28,-92.98 396.44,-92.9 391.57,-92.7 386.68,-92.38 381.78,-91.95 376.89,-91.41 372.02,-90.77 367.18,-90.03 362.4,-89.2 357.68,-88.29 353.04,-87.29 348.49,-86.22 344.04,-85.07 339.72,-83.86 335.52,-82.59 331.47,-81.26 327.57,-79.87 323.83,-78.44 320.27,-76.95 316.9,-75.43 313.71,-73.86 310.73,-72.26 307.95,-70.62 305.39,-68.95 303.05,-67.25 300.94,-65.52 299.05,-63.76 297.4,-61.97 295.99,-60.16 294.83,-58.33 293.9,-56.47 293.22,-54.59 292.78,-52.69 292.58,-50.78 292.63,-48.84 292.92,-46.89 293.45,-44.93 294.21,-42.95 295.21,-40.96 296.44,-38.97 297.89,-36.97 299.56,-34.97 301.45,-32.97 303.55,-30.97 305.85,-28.99 308.35,-27.02 311.03,-25.07 313.9,-23.15 316.95,-21.26 320.16,-19.4 323.53,-17.59 327.04,-15.83 330.7,-14.12 334.49,-12.48 338.4,-10.91 342.43,-9.41 346.55,-8 350.77,-6.68 355.07,-5.47 359.44,-4.36 363.88,-3.36 368.36,-2.48 372.88,-1.73 377.43,-1.11 382,-0.63 386.58,-0.3 391.15,-0.11 395.7,-0.07 400.23,-0.19 404.71,-0.46 409.15,-0.89 413.52,-1.49 417.83,-2.24 422.04,-3.16 426.17,-4.23 430.18,-5.47 434.08,-6.85 437.86,-8.39 441.49,-10.07 444.97,-11.89 448.3,-13.84 451.46,-15.93 454.44,-18.13 457.23,-20.44 459.83,-22.85 462.23,-25.36 464.41,-27.95 466.38,-30.61 468.12,-33.33 469.63,-36.1 470.9,-38.91 471.93,-41.75 472.72,-44.6"/>
<text text-anchor="middle" x="382.49" y="-44.13" font-family="sans-serif" font-size="16.00">Seguridad</text>
</g>
<!-- GestionClientes&#45;&gt;Seguridad -->
<g id="edge4" class="edge">
<title>GestionClientes&#45;&gt;Seguridad</title>
<path fill="none" stroke="black" stroke-width="2" d="M382.49,-144.86C382.49,-127.86 382.49,-108.84 382.49,-92.25"/>
<text text-anchor="middle" x="438.49" y="-117.26" font-family="sans-serif" font-size="12.00">Customer/Supplier</text>
<polygon fill="white" stroke="transparent" points="375.49,-83.25 375.49,-100.25 389.49,-100.25 389.49,-83.25 375.49,-83.25"/>
<text text-anchor="start" x="377.49" y="-88.65" font-family="sans-serif" font-size="12.00">D</text>
<polygon fill="white" stroke="transparent" points="375.49,-135.86 375.49,-152.86 389.49,-152.86 389.49,-135.86 375.49,-135.86"/>
<text text-anchor="start" x="377.49" y="-141.26" font-family="sans-serif" font-size="12.00">U</text>
</g>
</g>
</svg>
